<svg xmlns="http://www.w3.org/2000/svg" xmlns:v="https://svgstorm.com"
viewBox = "0 0 922 1084"
width="922"
height="1084">
<g fill="None" fill-opacity="0.0" stroke="#000000" stroke-opacity="0.00" stroke-width="0.3"><path d="
M 0.00 8.00 
C 22.54 4.50 45.61 1.00 69.00 1.00
C 68.96 1.00 69.00 0.00 69.00 0.00
L 0.00 0.00
L 0.00 8.00 Z"/>
</g>
<g fill="None" fill-opacity="0.0" stroke="#FD9000" stroke-opacity="0.16" stroke-width="0.3"><path d="
M 69.00 1.00 
C 75.33 1.00 81.67 1.00 88.00 1.00
C 87.96 1.00 88.00 0.00 88.00 0.00
L 69.00 0.00
C 69.00 0.00 68.96 1.00 69.00 1.00 Z"/>
</g>
<g fill="None" fill-opacity="0.0" stroke="#FF9000" stroke-opacity="0.38" stroke-width="0.3"><path d="
M 88.00 1.00 
C 96.33 1.00 104.67 1.00 113.00 1.00
C 112.96 1.00 113.00 0.00 113.00 0.00
L 88.00 0.00
C 88.00 0.00 87.96 1.00 88.00 1.00 Z"/>
</g>
<g fill="None" fill-opacity="0.0" stroke="#FE9000" stroke-opacity="0.22" stroke-width="0.3"><path d="
M 113.00 1.00 
C 117.28 1.00 121.74 0.63 126.00 1.00
C 125.79 0.89 126.00 0.00 126.00 0.00
L 113.00 0.00
C 113.00 0.00 112.96 1.00 113.00 1.00 Z"/>
</g>
<g fill="None" fill-opacity="0.0" stroke="#FE9000" stroke-opacity="0.43" stroke-width="0.3"><path d="
M 126.00 1.00 
C 128.60 1.23 130.92 1.12 133.00 1.00
C 132.65 0.95 132.17 0.34 132.00 0.00
L 126.00 0.00
C 126.00 0.00 125.79 0.89 126.00 1.00 Z"/>
</g>
<g fill="None" fill-opacity="0.0" stroke="#000000" stroke-opacity="0.00" stroke-width="0.3"><path d="
M 133.00 1.00 
C 165.81 5.72 205.68 5.87 236.67 14.33 C 267.66 22.79 297.11 30.80 325.23 42.77 C 353.35 54.74 378.18 67.15 403.23 82.77 C 428.28 98.39 448.17 114.60 469.90 133.10 C 491.63 151.60 509.07 171.83 527.77 193.23 C 546.47 214.63 560.11 239.28 574.92 263.08 C 589.72 286.88 607.36 309.95 624.92 331.08 C 642.48 352.21 660.68 371.28 681.90 391.10 C 703.12 410.92 723.74 426.68 748.25 442.75 C 772.75 458.83 797.34 471.73 825.68 482.32 C 854.02 492.91 890.16 503.04 922.00 504.00
L 922.00 0.00
L 132.00 0.00
C 132.17 0.34 132.65 0.95 133.00 1.00 Z"/>
</g>
<g fill="None" fill-opacity="0.0" stroke="#FC8E00" stroke-opacity="1.00" stroke-width="0.3"><path d="
M 0.00 8.00 
L 0.00 685.00
C 41.18 665.07 84.16 641.96 132.00 641.00
C 142.28 639.05 152.75 638.58 163.00 641.00
C 207.52 643.41 251.08 665.50 282.25 695.75 C 313.42 726.00 337.87 759.81 351.99 800.01 C 366.11 840.21 380.80 883.73 407.25 918.75 C 433.70 953.76 457.31 980.72 494.75 1005.25 C 532.18 1029.79 569.53 1047.43 614.07 1059.93 C 658.61 1072.42 717.08 1083.00 766.00 1083.00
C 771.00 1083.00 776.00 1083.00 781.00 1083.00
C 793.83 1083.00 807.99 1082.17 820.00 1084.00
L 828.00 1084.00
C 830.43 1082.26 834.82 1083.00 838.00 1083.00
C 866.37 1083.00 894.12 1079.12 922.00 1077.00
L 922.00 504.00
C 890.16 503.04 854.02 492.91 825.68 482.32 C 797.34 471.73 772.75 458.83 748.25 442.75 C 723.74 426.68 703.12 410.92 681.90 391.10 C 660.68 371.28 642.48 352.21 624.92 331.08 C 607.36 309.95 589.72 286.88 574.92 263.08 C 560.11 239.28 546.47 214.63 527.77 193.23 C 509.07 171.83 491.63 151.60 469.90 133.10 C 448.17 114.60 428.28 98.39 403.23 82.77 C 378.18 67.15 353.35 54.74 325.23 42.77 C 297.11 30.80 267.66 22.79 236.67 14.33 C 205.68 5.87 165.81 5.72 133.00 1.00
C 130.92 1.12 128.60 1.23 126.00 1.00
C 121.74 0.63 117.28 1.00 113.00 1.00
C 104.67 1.00 96.33 1.00 88.00 1.00
C 81.67 1.00 75.33 1.00 69.00 1.00
C 45.61 1.00 22.54 4.50 0.00 8.00 Z"/>
</g>
<g fill="None" fill-opacity="0.0" stroke="#FE9000" stroke-opacity="0.40" stroke-width="0.3"><path d="
M 132.00 641.00 
C 142.24 640.80 152.78 640.45 163.00 641.00
C 152.75 638.58 142.28 639.05 132.00 641.00 Z"/>
</g>
<g fill="None" fill-opacity="0.0" stroke="#000000" stroke-opacity="0.00" stroke-width="0.3"><path d="
M 0.00 685.00 
L 0.00 1084.00
L 766.00 1084.00
C 766.00 1083.50 766.00 1083.00 766.00 1083.00
C 717.08 1083.00 658.61 1072.42 614.07 1059.93 C 569.53 1047.43 532.18 1029.79 494.75 1005.25 C 457.31 980.72 433.70 953.76 407.25 918.75 C 380.80 883.73 366.11 840.21 351.99 800.01 C 337.87 759.81 313.42 726.00 282.25 695.75 C 251.08 665.50 207.52 643.41 163.00 641.00
C 152.78 640.45 142.24 640.80 132.00 641.00
C 84.16 641.96 41.18 665.07 0.00 685.00 Z"/>
</g>
<g fill="None" fill-opacity="0.0" stroke="#000000" stroke-opacity="0.00" stroke-width="0.3"><path d="
M 838.00 1083.00 
C 838.04 1083.00 838.00 1084.00 838.00 1084.00
L 922.00 1084.00
L 922.00 1077.00
C 894.12 1079.12 866.37 1083.00 838.00 1083.00 Z"/>
</g>
<g fill="None" fill-opacity="0.0" stroke="#FD8E00" stroke-opacity="0.11" stroke-width="0.3"><path d="
M 766.00 1084.00 
L 781.00 1084.00
C 781.00 1083.50 781.00 1083.00 781.00 1083.00
C 776.00 1083.00 771.00 1083.00 766.00 1083.00
C 766.00 1083.00 766.00 1083.50 766.00 1084.00 Z"/>
</g>
<g fill="None" fill-opacity="0.0" stroke="#FE8F00" stroke-opacity="0.32" stroke-width="0.3"><path d="
M 781.00 1084.00 
L 820.00 1084.00
C 807.99 1082.17 793.83 1083.00 781.00 1083.00
C 781.00 1083.00 781.00 1083.50 781.00 1084.00 Z"/>
</g>
<g fill="None" fill-opacity="0.0" stroke="#FF8D00" stroke-opacity="0.08" stroke-width="0.3"><path d="
M 828.00 1084.00 
L 838.00 1084.00
C 838.00 1084.00 838.04 1083.00 838.00 1083.00
C 834.82 1083.00 830.43 1082.26 828.00 1084.00 Z"/>
</g>
<g fill="#000000" fill-opacity="0.00" stroke="None">
<path d="
M 0.00 8.00 
C 22.54 4.50 45.61 1.00 69.00 1.00
C 68.96 1.00 69.00 0.00 69.00 0.00
L 0.00 0.00
L 0.00 8.00 Z"/>
</g>
<g fill="#FD9000" fill-opacity="0.16" stroke="None">
<path d="
M 69.00 1.00 
C 75.33 1.00 81.67 1.00 88.00 1.00
C 87.96 1.00 88.00 0.00 88.00 0.00
L 69.00 0.00
C 69.00 0.00 68.96 1.00 69.00 1.00 Z"/>
</g>
<g fill="#FF9000" fill-opacity="0.38" stroke="None">
<path d="
M 88.00 1.00 
C 96.33 1.00 104.67 1.00 113.00 1.00
C 112.96 1.00 113.00 0.00 113.00 0.00
L 88.00 0.00
C 88.00 0.00 87.96 1.00 88.00 1.00 Z"/>
</g>
<g fill="#FE9000" fill-opacity="0.22" stroke="None">
<path d="
M 113.00 1.00 
C 117.28 1.00 121.74 0.63 126.00 1.00
C 125.79 0.89 126.00 0.00 126.00 0.00
L 113.00 0.00
C 113.00 0.00 112.96 1.00 113.00 1.00 Z"/>
</g>
<g fill="#FE9000" fill-opacity="0.43" stroke="None">
<path d="
M 126.00 1.00 
C 128.60 1.23 130.92 1.12 133.00 1.00
C 132.65 0.95 132.17 0.34 132.00 0.00
L 126.00 0.00
C 126.00 0.00 125.79 0.89 126.00 1.00 Z"/>
</g>
<g fill="#000000" fill-opacity="0.00" stroke="None">
<path d="
M 133.00 1.00 
C 165.81 5.72 205.68 5.87 236.67 14.33 C 267.66 22.79 297.11 30.80 325.23 42.77 C 353.35 54.74 378.18 67.15 403.23 82.77 C 428.28 98.39 448.17 114.60 469.90 133.10 C 491.63 151.60 509.07 171.83 527.77 193.23 C 546.47 214.63 560.11 239.28 574.92 263.08 C 589.72 286.88 607.36 309.95 624.92 331.08 C 642.48 352.21 660.68 371.28 681.90 391.10 C 703.12 410.92 723.74 426.68 748.25 442.75 C 772.75 458.83 797.34 471.73 825.68 482.32 C 854.02 492.91 890.16 503.04 922.00 504.00
L 922.00 0.00
L 132.00 0.00
C 132.17 0.34 132.65 0.95 133.00 1.00 Z"/>
</g>
<g fill="#FC8E00" fill-opacity="1.00" stroke="None">
<path d="
M 0.00 8.00 
L 0.00 685.00
C 41.18 665.07 84.16 641.96 132.00 641.00
C 142.28 639.05 152.75 638.58 163.00 641.00
C 207.52 643.41 251.08 665.50 282.25 695.75 C 313.42 726.00 337.87 759.81 351.99 800.01 C 366.11 840.21 380.80 883.73 407.25 918.75 C 433.70 953.76 457.31 980.72 494.75 1005.25 C 532.18 1029.79 569.53 1047.43 614.07 1059.93 C 658.61 1072.42 717.08 1083.00 766.00 1083.00
C 771.00 1083.00 776.00 1083.00 781.00 1083.00
C 793.83 1083.00 807.99 1082.17 820.00 1084.00
L 828.00 1084.00
C 830.43 1082.26 834.82 1083.00 838.00 1083.00
C 866.37 1083.00 894.12 1079.12 922.00 1077.00
L 922.00 504.00
C 890.16 503.04 854.02 492.91 825.68 482.32 C 797.34 471.73 772.75 458.83 748.25 442.75 C 723.74 426.68 703.12 410.92 681.90 391.10 C 660.68 371.28 642.48 352.21 624.92 331.08 C 607.36 309.95 589.72 286.88 574.92 263.08 C 560.11 239.28 546.47 214.63 527.77 193.23 C 509.07 171.83 491.63 151.60 469.90 133.10 C 448.17 114.60 428.28 98.39 403.23 82.77 C 378.18 67.15 353.35 54.74 325.23 42.77 C 297.11 30.80 267.66 22.79 236.67 14.33 C 205.68 5.87 165.81 5.72 133.00 1.00
C 130.92 1.12 128.60 1.23 126.00 1.00
C 121.74 0.63 117.28 1.00 113.00 1.00
C 104.67 1.00 96.33 1.00 88.00 1.00
C 81.67 1.00 75.33 1.00 69.00 1.00
C 45.61 1.00 22.54 4.50 0.00 8.00 Z"/>
</g>
<g fill="#FE9000" fill-opacity="0.40" stroke="None">
<path d="
M 132.00 641.00 
C 142.24 640.80 152.78 640.45 163.00 641.00
C 152.75 638.58 142.28 639.05 132.00 641.00 Z"/>
</g>
<g fill="#000000" fill-opacity="0.00" stroke="None">
<path d="
M 0.00 685.00 
L 0.00 1084.00
L 766.00 1084.00
C 766.00 1083.50 766.00 1083.00 766.00 1083.00
C 717.08 1083.00 658.61 1072.42 614.07 1059.93 C 569.53 1047.43 532.18 1029.79 494.75 1005.25 C 457.31 980.72 433.70 953.76 407.25 918.75 C 380.80 883.73 366.11 840.21 351.99 800.01 C 337.87 759.81 313.42 726.00 282.25 695.75 C 251.08 665.50 207.52 643.41 163.00 641.00
C 152.78 640.45 142.24 640.80 132.00 641.00
C 84.16 641.96 41.18 665.07 0.00 685.00 Z"/>
</g>
<g fill="#000000" fill-opacity="0.00" stroke="None">
<path d="
M 838.00 1083.00 
C 838.04 1083.00 838.00 1084.00 838.00 1084.00
L 922.00 1084.00
L 922.00 1077.00
C 894.12 1079.12 866.37 1083.00 838.00 1083.00 Z"/>
</g>
<g fill="#FD8E00" fill-opacity="0.11" stroke="None">
<path d="
M 766.00 1084.00 
L 781.00 1084.00
C 781.00 1083.50 781.00 1083.00 781.00 1083.00
C 776.00 1083.00 771.00 1083.00 766.00 1083.00
C 766.00 1083.00 766.00 1083.50 766.00 1084.00 Z"/>
</g>
<g fill="#FE8F00" fill-opacity="0.32" stroke="None">
<path d="
M 781.00 1084.00 
L 820.00 1084.00
C 807.99 1082.17 793.83 1083.00 781.00 1083.00
C 781.00 1083.00 781.00 1083.50 781.00 1084.00 Z"/>
</g>
<g fill="#FF8D00" fill-opacity="0.08" stroke="None">
<path d="
M 828.00 1084.00 
L 838.00 1084.00
C 838.00 1084.00 838.04 1083.00 838.00 1083.00
C 834.82 1083.00 830.43 1082.26 828.00 1084.00 Z"/>
</g>
</svg>